<svg width="45" height="45" viewBox="0 0 45 45" fill="none" xmlns="http://www.w3.org/2000/svg">
<g clip-path="url(#clip0_2387_2795)">
<path d="M35.945 17.5304C34.0469 11.2084 26.9291 7.84731 20.1453 9.98132C13.3614 12.1153 9.44228 18.9531 11.3491 25.2573C11.6668 26.3051 12.1409 27.2976 12.7551 28.2004C12.8673 28.3675 12.92 28.5682 12.9045 28.7695C12.8434 29.4453 12.6372 30.0993 12.3002 30.686C11.9632 31.2727 11.5037 31.7779 10.9537 32.1661C9.86408 32.913 10.0222 33.7133 11.3052 33.5621C12.8829 33.4141 14.3816 32.7951 15.611 31.7838C15.7151 31.6608 15.8599 31.5803 16.0184 31.5574C16.1769 31.5345 16.3382 31.5707 16.4722 31.6593C19.5214 33.7044 23.1681 34.0423 27.1928 32.7708C33.9415 30.6723 37.8782 23.8346 35.945 17.5304Z" stroke="#6F6E7C" stroke-width="1.8" stroke-miterlimit="10"/>
<rect x="29.367" y="9.2" width="14.6" height="11.6" rx="5.8" fill="#B5B3FF"/>
<rect x="29.367" y="9.2" width="14.6" height="11.6" rx="5.8" stroke="#0F1115" stroke-width="1.4"/>
<path d="M35.4726 17.5H34.4786V14.112L33.7016 14.903L33.1346 14.308L34.6046 12.831H35.4726V17.5ZM38.1055 17.584C36.7685 17.584 36.1735 16.373 36.1735 15.169C36.1735 13.965 36.7685 12.761 38.1055 12.761C39.4355 12.761 40.0375 13.965 40.0375 15.169C40.0375 16.373 39.4355 17.584 38.1055 17.584ZM38.1055 16.702C38.7705 16.702 39.0225 16.03 39.0225 15.169C39.0225 14.308 38.7705 13.643 38.1055 13.643C37.4335 13.643 37.1815 14.308 37.1815 15.169C37.1815 16.03 37.4335 16.702 38.1055 16.702Z" fill="#0F1115"/>
</g>
<defs>
<clipPath id="clip0_2387_2795">
<rect width="44" height="44" fill="white" transform="translate(0.666992 0.5)"/>
</clipPath>
</defs>
</svg>
