<svg width="19" height="27" viewBox="0 0 19 27" fill="none" xmlns="http://www.w3.org/2000/svg">
<path d="M9.93235 18.7045C12.7913 18.7045 15.1164 16.3782 15.1164 13.5205V5.74455C15.1164 2.88557 12.7913 0.560547 9.93235 0.560547C7.07337 0.560547 4.74835 2.88557 4.74835 5.74455V13.5205C4.74835 16.3782 7.07337 18.7045 9.93235 18.7045ZM19.0043 13.5205V10.9285C19.0043 10.5848 18.8678 10.2552 18.6248 10.0121C18.3817 9.76909 18.0521 9.63255 17.7084 9.63255C17.3646 9.63255 17.035 9.76909 16.7919 10.0121C16.5489 10.2552 16.4123 10.5848 16.4123 10.9285V13.5205C16.4123 17.0936 13.5054 20.0005 9.93235 20.0005C6.35928 20.0005 3.45235 17.0936 3.45235 13.5205V10.9285C3.45235 10.5848 3.31581 10.2552 3.07276 10.0121C2.82971 9.76909 2.50007 9.63255 2.15635 9.63255C1.81263 9.63255 1.48299 9.76909 1.23994 10.0121C0.996894 10.2552 0.860352 10.5848 0.860352 10.9285V13.5205C0.860352 18.0825 4.2468 21.8564 8.63635 22.4889V23.8885H4.74835C4.40463 23.8885 4.07499 24.0251 3.83194 24.2681C3.58889 24.5112 3.45235 24.8408 3.45235 25.1845C3.45235 25.5283 3.58889 25.8579 3.83194 26.101C4.07499 26.344 4.40463 26.4805 4.74835 26.4805H15.1164C15.4601 26.4805 15.7897 26.344 16.0328 26.101C16.2758 25.8579 16.4123 25.5283 16.4123 25.1845C16.4123 24.8408 16.2758 24.5112 16.0328 24.2681C15.7897 24.0251 15.4601 23.8885 15.1164 23.8885H11.2284V22.4889C15.6179 21.8564 19.0043 18.0825 19.0043 13.5205Z" fill="#8B88EF"/>
</svg>
