<svg width="45" height="45" viewBox="0 0 45 45" fill="none" xmlns="http://www.w3.org/2000/svg">
<path d="M22.533 37.5C16.2083 37.5 11.333 32.7565 11.333 26.5636C11.333 24.3236 11.7283 22.6106 12.5189 21.293C13.3095 20.1071 13.7048 19.5801 14.3636 18.9213C14.6271 18.7895 14.7589 18.526 15.0224 18.2624L15.4177 17.7354C16.0765 17.0766 16.2083 16.9448 16.8671 15.7589C17.5259 14.573 18.053 11.806 18.053 9.82952C18.053 9.30247 18.3165 8.90717 18.8436 8.64365C19.2389 8.38012 19.7659 8.51188 20.1612 8.77541L20.82 9.30247C22.2694 10.3566 24.1141 11.9378 25.5635 14.1777C26.4859 15.6271 27.4082 17.6036 27.9353 19.1848C28.1988 18.6577 28.4624 17.9989 28.5941 17.2083C28.7259 16.6813 29.1212 16.1542 29.6482 16.0224C30.1753 15.8907 30.8341 16.1542 31.0976 16.6813C32.02 18.2624 32.1517 18.526 32.9423 20.8977C33.7329 23.4012 33.8647 24.9824 33.8647 26.4318C33.7329 32.493 28.7259 37.5 22.533 37.5ZM20.4247 12.4648C20.1612 14.1777 19.7659 15.8907 19.1071 17.0766C18.3165 18.3942 18.053 18.7895 17.3942 19.5801L16.9989 19.9754C16.7353 20.2389 16.4718 20.5024 16.34 20.766C15.813 21.4248 15.4177 21.8201 14.7589 22.7424C14.2318 23.6648 13.9683 24.9824 13.9683 26.6953C13.9683 31.3071 17.7895 34.9965 22.533 34.9965C27.2765 34.9965 31.0976 31.1753 31.0976 26.4318C31.0976 25.1142 31.0976 23.9283 30.3071 21.8201C30.1753 21.4248 30.0435 21.1612 30.0435 20.8977C29.3847 21.9518 28.5941 22.6106 28.1988 22.8742C27.8035 23.1377 27.2765 23.2695 26.7494 23.0059C26.3541 22.7424 25.9588 22.3471 25.9588 21.8201C25.9588 21.4248 24.9047 17.8671 23.4553 15.6271C22.533 14.3095 21.4788 13.2554 20.4247 12.4648Z" fill="#6F6E7C"/>
<rect x="29.033" y="9.2" width="14.6" height="11.6" rx="5.8" fill="#B5B3FF"/>
<rect x="29.033" y="9.2" width="14.6" height="11.6" rx="5.8" stroke="#0F1115" stroke-width="1.4"/>
</svg>
